<?xml version="1.0" encoding="UTF-8"?>
<!-- Generated by Pixelmator Pro 2.4.5 -->
<svg width="120" height="100" viewBox="0 0 120 100" xmlns="http://www.w3.org/2000/svg" xmlns:xlink="http://www.w3.org/1999/xlink">
    <path id="m" fill="#000000" fill-rule="evenodd" stroke="none" d="M 20.767944 72 C 19.806641 72 19.32605 71.725342 19.32605 71.176025 C 19.32605 70.969971 19.360352 70.729614 19.428955 70.454956 L 26.639038 29.255005 L 22.209961 29.255005 C 21.523315 29.323608 21.094116 29.255005 20.922485 29.04895 C 20.750854 28.843018 20.699341 28.43103 20.767944 27.812988 L 21.694946 22.560059 C 21.832275 21.942017 22.004028 21.530029 22.209961 21.323975 C 22.416016 21.118042 22.862305 21.015015 23.54895 21.015015 L 36.42395 21.015015 C 37.110718 21.015015 37.539795 21.118042 37.711548 21.323975 C 37.883179 21.530029 37.934692 21.942017 37.865967 22.560059 L 36.938965 28.843018 C 41.402344 22.869019 47.170288 19.881958 54.243042 19.881958 C 57.744995 19.881958 60.526001 20.705933 62.58606 22.354004 C 64.645996 24.001953 65.984985 26.199341 66.603027 28.946045 C 71.409668 22.90332 77.143311 19.881958 83.803955 19.881958 C 88.130005 19.881958 91.408813 20.980713 93.640503 23.177979 C 95.872192 25.375366 96.988037 28.533936 96.988037 32.654053 C 96.988037 34.370728 96.678955 36.773926 96.061035 39.864014 L 91.529053 61.802979 C 91.460327 62.283691 91.426025 62.695679 91.426025 63.03894 C 91.426025 64.343628 91.975342 64.995972 93.073975 64.995972 C 93.897949 64.995972 94.876465 64.755615 96.009521 64.275024 C 97.142456 63.794312 97.915039 64.000366 98.327026 64.892944 L 99.151001 66.541016 C 99.357056 66.884277 99.459961 67.261963 99.459961 67.67395 C 99.459961 68.08606 99.185303 68.498047 98.635986 68.910034 C 94.927979 71.862671 91.185669 73.338989 87.409058 73.338989 C 82.052979 73.338989 79.375 71.072998 79.375 66.541016 C 79.375 65.648315 79.478027 64.65271 79.68396 63.553955 L 83.906982 42.748047 C 84.456299 39.795288 84.730957 37.563721 84.730957 36.052979 C 84.730957 31.864258 82.602295 29.77002 78.344971 29.77002 C 75.392334 29.77002 72.731567 30.714111 70.362549 32.602539 C 67.99353 34.490845 66.603027 36.636597 66.19104 39.040039 L 60.732056 70.454956 C 60.594727 71.484985 59.942383 72 58.775024 72 L 50.535034 72 C 49.848389 72 49.419189 71.896973 49.247559 71.69104 C 49.075806 71.484985 49.058716 71.072998 49.196045 70.454956 L 54.140015 42.233032 C 54.620728 39.486328 54.860962 37.426392 54.860962 36.052979 C 54.860962 31.864258 52.766724 29.77002 48.578003 29.77002 C 45.488037 29.77002 42.758545 30.868652 40.389526 33.06604 C 38.020508 35.263306 36.595703 37.735352 36.11499 40.482056 L 30.759033 70.454956 C 30.690308 71.072998 30.518677 71.484985 30.244019 71.69104 C 29.96936 71.896973 29.488647 72 28.802002 72 Z"/>
    <path id="Line-copy" fill="none" stroke="#000000" stroke-width="7" stroke-linecap="round" stroke-linejoin="round" d="M 14 86 L 101 86"/>
</svg>
