<?xml version="1.0" encoding="UTF-8"?>
<!-- Generated by Pixelmator Pro 2.4.5 -->
<svg width="450" height="120" viewBox="0 0 450 120" xmlns="http://www.w3.org/2000/svg" xmlns:xlink="http://www.w3.org/1999/xlink">
    <path id="markline" fill="#000000" fill-rule="evenodd" stroke="none" d="M 430.149902 92.261963 C 424.656738 96.244629 418.373779 98.235962 411.301025 98.235962 C 404.228271 98.235962 399.043945 96.433472 395.748047 92.828491 C 392.451904 89.223511 390.803955 84.262329 390.803955 77.944946 C 390.803955 69.636353 393.104248 62.186035 397.705078 55.593994 C 399.970947 52.366699 402.975098 49.774536 406.717529 47.817505 C 410.459961 45.860474 414.785889 44.881958 419.695557 44.881958 C 424.605225 44.881958 428.43335 46.135132 431.179932 48.641479 C 433.926758 51.147827 435.300049 54.460938 435.300049 58.581055 C 435.231445 64.760986 432.690674 69.258667 427.677979 72.073975 C 422.665283 74.889404 416.588379 76.296997 409.447021 76.296997 C 407.799072 76.296997 405.601563 76.159668 402.85498 75.88501 C 402.786377 76.434326 402.751953 77.189697 402.751953 78.151001 C 402.751953 81.584351 403.696045 84.348145 405.584473 86.442505 C 407.4729 88.536865 410.477051 89.583984 414.596924 89.583984 C 418.717041 89.583984 422.733887 88.416626 426.647949 86.082031 C 427.609375 85.601318 428.330322 85.807373 428.811035 86.699951 L 430.562012 89.892944 C 431.111328 90.785645 430.974121 91.575317 430.149902 92.261963 Z M 416.863037 53.73999 C 413.292236 53.73999 410.374023 55.113281 408.10791 57.859985 C 405.842041 60.606689 404.365723 64.074341 403.678955 68.262939 C 405.052246 68.53772 406.356934 68.675049 407.593018 68.675049 C 411.918945 68.675049 415.644043 67.885376 418.768555 66.30603 C 421.892822 64.726685 423.455078 62.323364 423.455078 59.095947 C 423.455078 57.379272 422.854248 56.057495 421.652588 55.130493 C 420.450928 54.203491 418.854248 53.73999 416.863037 53.73999 Z M 332.402954 97 C 331.44165 97 330.96106 96.725342 330.96106 96.176025 C 330.96106 95.969971 330.995361 95.729614 331.063965 95.454956 L 338.273926 54.255005 L 333.844971 54.255005 C 333.158325 54.323608 332.729126 54.255005 332.557495 54.04895 C 332.385864 53.843018 332.368652 53.43103 332.505981 52.812988 L 333.329956 47.560059 C 333.467285 46.942017 333.656128 46.530029 333.896484 46.323975 C 334.136841 46.118042 334.600342 46.015015 335.286987 46.015015 L 348.264893 46.015015 C 348.95166 46.015015 349.380859 46.118042 349.55249 46.323975 C 349.724121 46.530029 349.741455 46.942017 349.604004 47.560059 L 348.677002 53.534058 C 353.552246 47.765991 359.663574 44.881958 367.010986 44.881958 C 371.336914 44.881958 374.71875 45.997803 377.156494 48.229492 C 379.594238 50.461182 380.812988 53.636963 380.812988 57.756958 C 380.812988 59.610962 380.53833 61.774048 379.989014 64.245972 L 375.250977 86.802979 C 375.182373 87.283691 375.147949 87.695679 375.147949 88.03894 C 375.147949 89.343628 375.697266 89.995972 376.795898 89.995972 C 377.620117 89.995972 378.598389 89.755615 379.731445 89.275024 C 380.864502 88.794312 381.636963 89.000366 382.049072 89.892944 L 382.873047 91.541016 C 383.079102 91.884277 383.181885 92.261963 383.181885 92.67395 C 383.181885 93.08606 382.907227 93.498047 382.35791 93.910034 C 378.649902 96.862671 374.907715 98.338989 371.131104 98.338989 C 365.774902 98.338989 363.096924 96.072998 363.096924 91.541016 C 363.096924 90.648315 363.199951 89.65271 363.406006 88.553955 L 367.834961 67.130005 C 368.315674 64.589355 368.555908 62.426392 368.555908 60.640991 C 368.555908 56.658325 366.255615 54.666992 361.655029 54.666992 C 358.22168 54.666992 355.183105 55.628296 352.539551 57.551025 C 349.895752 59.473633 348.33374 61.842651 347.853027 64.657959 L 342.49707 95.454956 C 342.428223 96.072998 342.256592 96.484985 341.981934 96.69104 C 341.707275 96.896973 341.226563 97 340.540039 97 Z M 304.79895 46.015015 L 319.115967 46.015015 C 319.802612 46.015015 320.231812 46.118042 320.403442 46.323975 C 320.575195 46.530029 320.592285 46.942017 320.454956 47.560059 L 313.45105 86.802979 C 313.382324 87.283691 313.348022 87.695679 313.348022 88.03894 C 313.348022 89.343628 313.931641 89.995972 315.098999 89.995972 C 315.922974 89.995972 316.901489 89.755615 318.034546 89.275024 C 319.16748 88.794312 319.939941 89.000366 320.352051 89.892944 L 321.176025 91.541016 C 321.656616 92.433716 321.484985 93.223389 320.661011 93.910034 C 316.953003 96.862671 313.210693 98.338989 309.43396 98.338989 C 304.146606 98.338989 301.503052 95.969971 301.503052 91.232056 C 301.503052 90.407959 301.571655 89.515381 301.708984 88.553955 L 307.579956 54.358032 L 303.151001 54.358032 C 302.464355 54.426636 302.035156 54.358032 301.863525 54.151978 C 301.691772 53.946045 301.674683 53.534058 301.812012 52.916016 L 302.842041 47.560059 C 302.97937 46.530029 303.631714 46.015015 304.79895 46.015015 Z M 322.927002 29.637939 C 322.927002 31.766724 322.154541 33.569214 320.609497 35.045532 C 319.064453 36.521851 317.193359 37.26001 314.995972 37.26001 C 312.798706 37.26001 311.082031 36.607666 309.845947 35.302979 C 308.609985 33.998291 307.991943 32.298828 307.991943 30.204468 C 307.991943 28.110107 308.798828 26.307617 310.412476 24.796997 C 312.026123 23.286377 313.897339 22.531006 316.026001 22.531006 C 318.154663 22.531006 319.837036 23.18335 321.072998 24.488037 C 322.30896 25.792725 322.927002 27.509277 322.927002 29.637939 Z M 293.572021 20.161987 C 294.533325 20.161987 295.014038 20.436646 295.014038 20.985962 C 295.014038 21.192017 294.979614 21.432373 294.911011 21.707031 L 283.271973 86.802979 C 283.203369 87.214966 283.168945 87.626953 283.168945 88.03894 C 283.168945 89.343628 283.786987 89.995972 285.022949 89.995972 C 285.847046 89.995972 286.825439 89.755615 287.958496 89.275024 C 289.091553 88.794312 289.864014 89.000366 290.276001 89.892944 L 291.099976 91.541016 C 291.580688 92.433716 291.409058 93.223389 290.584961 93.910034 C 286.876953 96.862671 283.134644 98.338989 279.358032 98.338989 C 274.070679 98.338989 271.427002 95.969971 271.427002 91.232056 C 271.427002 90.407959 271.495605 89.515381 271.633057 88.553955 L 282.139038 28.401978 L 277.709961 28.401978 C 277.023315 28.470703 276.594116 28.401978 276.422485 28.196045 C 276.250854 27.98999 276.233643 27.578003 276.370972 26.959961 L 277.297974 21.707031 C 277.366699 21.088989 277.53833 20.677002 277.812988 20.470947 C 278.087646 20.265015 278.568359 20.161987 279.255005 20.161987 Z M 215.08606 97 C 214.124634 97 213.644043 96.725342 213.644043 96.176025 C 213.644043 95.969971 213.678345 95.729614 213.746948 95.454956 L 225.489014 28.505005 L 220.957031 28.505005 C 220.270386 28.573608 219.841187 28.505005 219.669556 28.29895 C 219.497803 28.093018 219.480713 27.68103 219.618042 27.062988 L 220.545044 21.707031 C 220.613647 21.088989 220.785278 20.677002 221.060059 20.470947 C 221.334717 20.265015 221.815308 20.161987 222.501953 20.161987 L 236.81897 20.161987 C 237.505615 20.161987 237.934814 20.265015 238.106445 20.470947 C 238.278198 20.677002 238.295288 21.088989 238.157959 21.707031 L 231.051025 62.803955 L 233.625977 62.803955 C 241.453979 62.803955 246.912964 57.722778 250.003052 47.560059 C 250.27771 46.530029 250.964355 46.015015 252.062988 46.015015 L 259.994019 46.015015 C 260.612061 46.015015 260.989624 46.118042 261.126953 46.323975 C 261.264282 46.530029 261.264282 46.942017 261.126953 47.560059 C 259.890991 52.023315 257.728027 55.782837 254.637939 58.838501 C 251.547974 61.894165 247.942993 63.799683 243.822998 64.555054 C 246.84436 64.898315 249.07605 65.962646 250.517944 67.748047 C 251.959961 69.533325 252.955688 72.554688 253.505005 76.812012 L 254.740967 87.112061 C 255.015625 89.583984 255.874023 90.819946 257.31604 90.819946 C 258.345947 90.819946 259.324463 90.596802 260.251465 90.150513 C 261.178467 89.704224 261.779297 89.532471 262.053955 89.635498 C 262.328613 89.738525 262.603271 90.098999 262.878052 90.717041 L 263.598999 92.261963 C 263.736328 92.605347 263.805054 92.983032 263.805054 93.39502 C 263.805054 93.807007 263.530396 94.184692 262.980957 94.527954 C 259.479004 97 256.11438 98.235962 252.886963 98.235962 C 249.659668 98.235962 247.427979 97.532227 246.192017 96.124512 C 244.956055 94.716797 244.097656 92.502319 243.616943 89.480957 L 241.968994 78.357056 C 241.557007 75.335693 240.818848 73.310059 239.754517 72.280029 C 238.690186 71.25 236.475708 70.734985 233.110962 70.734985 L 229.609009 70.734985 L 225.180054 95.454956 C 225.042725 96.484985 224.390381 97 223.223022 97 Z M 169.250977 97 C 168.289673 97 167.80896 96.725342 167.80896 96.176025 C 167.80896 95.969971 167.843384 95.729614 167.911987 95.454956 L 175.019043 54.358032 L 170.589966 54.358032 C 169.90332 54.426636 169.474121 54.358032 169.30249 54.151978 C 169.130859 53.946045 169.113647 53.534058 169.250977 52.916016 L 170.177979 47.560059 C 170.315308 46.530029 170.967651 46.015015 172.13501 46.015015 L 185.215942 46.015015 C 185.90271 46.015015 186.331787 46.118042 186.50354 46.323975 C 186.675171 46.530029 186.692383 46.942017 186.555054 47.560059 L 185.113037 56.005981 C 189.438965 48.589966 195.172607 44.881958 202.313965 44.881958 C 206.846069 44.881958 209.112061 45.534302 209.112061 46.838989 C 209.112061 47.045044 209.077637 47.285278 209.009033 47.560059 L 206.640015 61.156006 C 206.502686 62.186035 205.850342 62.70105 204.682983 62.70105 L 198.812012 62.70105 C 198.125366 62.70105 197.696167 62.598022 197.524536 62.391968 C 197.352783 62.186035 197.335693 61.774048 197.473022 61.156006 L 198.400024 55.697021 C 197.438721 55.559692 196.751953 55.490967 196.339966 55.490967 C 189.679321 55.490967 185.525024 60.160278 183.876953 69.499023 L 179.344971 95.454956 C 179.276367 96.072998 179.104614 96.484985 178.829956 96.69104 C 178.555298 96.896973 178.074707 97 177.387939 97 Z M 149.269043 46.015015 L 156.479004 46.015015 C 157.165649 46.015015 157.594849 46.118042 157.766479 46.323975 C 157.93811 46.530029 157.955322 46.942017 157.817993 47.560059 L 150.813965 87.009033 C 150.745361 87.352295 150.71106 87.695679 150.71106 88.03894 C 150.71106 89.275024 151.432007 89.892944 152.874023 89.892944 C 153.629395 89.892944 154.539185 89.65271 155.603516 89.171997 C 156.667847 88.691284 157.440308 88.897339 157.921021 89.790039 L 158.848022 91.437988 C 159.053955 91.781372 159.156982 92.159058 159.156982 92.571045 C 159.156982 92.983032 158.882324 93.39502 158.333008 93.807007 C 154.281616 96.759644 150.505005 98.235962 147.003052 98.235962 C 141.646973 98.235962 138.968994 95.661011 138.968994 90.510986 C 138.968994 90.305054 138.968994 90.098999 138.968994 89.892944 C 134.986328 95.455078 129.527344 98.235962 122.592041 98.235962 C 117.167358 98.235962 112.978638 96.673828 110.026001 93.549561 C 107.073364 90.425171 105.597046 85.670044 105.597046 79.284058 C 105.597046 70.769287 107.656982 63.078735 111.776978 56.212036 C 113.837036 52.84729 116.669434 50.117798 120.274536 48.02356 C 123.879517 45.929199 128.016602 44.881958 132.686035 44.881958 C 138.660034 44.881958 143.295044 46.976318 146.590942 51.165039 L 147.312012 47.560059 C 147.380615 46.942017 147.552368 46.530029 147.827026 46.323975 C 148.101685 46.118042 148.582275 46.015015 149.269043 46.015015 Z M 144.324951 59.095947 C 141.784302 55.525269 138.248047 53.705688 133.715942 53.636963 C 130.625977 53.636963 127.947998 54.409546 125.682007 55.954468 C 123.416016 57.499512 121.699341 59.542358 120.531982 62.083008 C 118.334595 66.889648 117.235962 71.679199 117.235962 76.451538 C 117.235962 81.223877 118.008545 84.571289 119.553467 86.494019 C 121.098511 88.416626 123.519043 89.378052 126.814941 89.378052 C 130.110962 89.378052 133.132324 88.382324 135.879028 86.390991 C 138.625732 84.399658 140.273682 81.687378 140.822998 78.254028 Z M 18.767944 97 C 17.806641 97 17.32605 96.725342 17.32605 96.176025 C 17.32605 95.969971 17.360352 95.729614 17.428955 95.454956 L 24.639038 54.255005 L 20.209961 54.255005 C 19.523315 54.323608 19.094116 54.255005 18.922485 54.04895 C 18.750854 53.843018 18.699341 53.43103 18.767944 52.812988 L 19.694946 47.560059 C 19.832275 46.942017 20.004028 46.530029 20.209961 46.323975 C 20.416016 46.118042 20.862305 46.015015 21.54895 46.015015 L 34.42395 46.015015 C 35.110718 46.015015 35.539795 46.118042 35.711548 46.323975 C 35.883179 46.530029 35.934692 46.942017 35.865967 47.560059 L 34.938965 53.843018 C 39.402344 47.869019 45.170288 44.881958 52.243042 44.881958 C 55.744995 44.881958 58.526001 45.705933 60.58606 47.354004 C 62.645996 49.001953 63.984985 51.199341 64.603027 53.946045 C 69.409668 47.90332 75.143311 44.881958 81.803955 44.881958 C 86.130005 44.881958 89.408813 45.980713 91.640503 48.177979 C 93.872192 50.375366 94.988037 53.533936 94.988037 57.654053 C 94.988037 59.370728 94.678955 61.773926 94.061035 64.864014 L 89.529053 86.802979 C 89.460327 87.283691 89.426025 87.695679 89.426025 88.03894 C 89.426025 89.343628 89.975342 89.995972 91.073975 89.995972 C 91.897949 89.995972 92.876465 89.755615 94.009521 89.275024 C 95.142456 88.794312 95.915039 89.000366 96.327026 89.892944 L 97.151001 91.541016 C 97.357056 91.884277 97.459961 92.261963 97.459961 92.67395 C 97.459961 93.08606 97.185303 93.498047 96.635986 93.910034 C 92.927979 96.862671 89.185669 98.338989 85.409058 98.338989 C 80.052979 98.338989 77.375 96.072998 77.375 91.541016 C 77.375 90.648315 77.478027 89.65271 77.68396 88.553955 L 81.906982 67.748047 C 82.456299 64.795288 82.730957 62.563721 82.730957 61.052979 C 82.730957 56.864258 80.602295 54.77002 76.344971 54.77002 C 73.392334 54.77002 70.731567 55.714111 68.362549 57.602539 C 65.99353 59.490845 64.603027 61.636597 64.19104 64.040039 L 58.732056 95.454956 C 58.594727 96.484985 57.942383 97 56.775024 97 L 48.535034 97 C 47.848389 97 47.419189 96.896973 47.247559 96.69104 C 47.075806 96.484985 47.058716 96.072998 47.196045 95.454956 L 52.140015 67.233032 C 52.620728 64.486328 52.860962 62.426392 52.860962 61.052979 C 52.860962 56.864258 50.766724 54.77002 46.578003 54.77002 C 43.488037 54.77002 40.758545 55.868652 38.389526 58.06604 C 36.020508 60.263306 34.595703 62.735352 34.11499 65.482056 L 28.759033 95.454956 C 28.690308 96.072998 28.518677 96.484985 28.244019 96.69104 C 27.96936 96.896973 27.488647 97 26.802002 97 Z"/>
</svg>
