<?xml version="1.0" encoding="UTF-8"?>
<!-- Generated by Pixelmator Pro 2.4.5 -->
<svg width="315" height="235" viewBox="0 0 315 235" xmlns="http://www.w3.org/2000/svg" xmlns:xlink="http://www.w3.org/1999/xlink">
    <path id="Mark-ine" fill="#000000" fill-rule="evenodd" stroke="none" d="M 20.964844 221 L 20.964844 189.173828 L 9.326172 196.279297 L 7.369141 193.087891 L 20.964844 184.847656 L 20.964844 149.3125 L 24.775391 149.3125 L 24.775391 182.580078 L 40.328125 173.105469 L 42.285156 176.298828 L 24.775391 186.90625 L 24.775391 217.189453 L 74.730469 217.189453 L 74.730469 221 L 20.964844 221 Z M 96.154297 221 L 96.154297 217.189453 L 117.476563 217.189453 L 117.476563 153.123047 L 96.154297 153.123047 L 96.154297 149.3125 L 142.607422 149.3125 L 142.607422 153.123047 L 121.183594 153.123047 L 121.183594 217.189453 L 142.607422 217.189453 L 142.607422 221 L 96.154297 221 Z M 167.533203 221 L 167.533203 149.3125 L 171.550781 149.3125 L 221.609375 197.927734 L 221.609375 149.3125 L 225.419922 149.3125 L 225.419922 221 L 221.609375 221 L 221.609375 203.283203 L 171.345703 154.255859 L 171.345703 221 L 167.533203 221 Z M 247.050781 221 L 247.050781 149.3125 L 297.519531 149.3125 L 297.519531 153.123047 L 250.861328 153.123047 L 250.861328 182.169922 L 291.443359 182.169922 L 291.443359 185.980469 L 250.861328 185.980469 L 250.861328 217.189453 L 297.519531 217.189453 L 297.519531 221 L 247.050781 221 Z M 87.914063 97 L 117.373047 25.3125 L 121.390625 25.3125 L 150.847656 97 L 146.728516 97 L 137.046875 73.310547 L 101.716797 73.310547 L 91.931641 97 L 87.914063 97 Z M 170.109375 97 L 170.109375 25.3125 L 197.404297 25.3125 C 200.425537 25.3125 203.016602 25.501221 205.179688 25.878906 C 207.342651 26.256592 209.318115 26.857666 211.103516 27.681641 C 215.223511 29.604248 218.466919 32.453857 220.835938 36.230469 C 223.204956 40.007202 224.390625 44.196167 224.390625 48.796875 C 224.390625 54.152832 222.759644 58.94104 219.498047 63.164063 C 216.236328 67.387085 212.063721 70.185303 206.982422 71.558594 L 225.214844 97 L 220.681641 97 L 203.068359 72.279297 L 199.773438 72.382813 L 173.919922 72.382813 L 173.919922 97 L 170.109375 97 Z M 244.990234 97 L 244.990234 25.3125 L 248.800781 25.3125 L 248.800781 73.824219 L 297.417969 25.3125 L 302.773438 25.3125 L 272.800781 55.181641 L 302.669922 97 L 298.138672 97 L 270.121094 57.859375 L 248.800781 79.181641 L 248.800781 97 L 244.990234 97 Z M 14.167969 96.896484 L 14.167969 25.208984 L 18.287109 25.208984 L 43.316406 69.5 L 68.242188 25.208984 L 72.052734 25.208984 L 72.052734 96.896484 L 14.167969 96.896484 Z M 17.978516 93.189453 L 68.242188 93.189453 L 68.242188 32.933594 L 45.066406 73.722656 L 41.462891 73.722656 L 17.978516 32.316406 L 17.978516 93.189453 Z M 103.261719 69.601563 L 135.5 69.601563 L 119.330078 30.255859 L 103.261719 69.601563 Z M 173.919922 68.572266 L 200.802734 68.572266 C 204.373413 68.572266 207.670044 67.67981 210.691406 65.894531 C 213.712769 64.109131 216.11499 61.704956 217.900391 58.683594 C 219.685791 55.662231 220.578125 52.367554 220.578125 48.796875 C 220.578125 44.814209 219.53186 41.207886 217.4375 37.980469 C 215.34314 34.753174 212.442383 32.35083 208.734375 30.771484 C 206.056396 29.672852 202.279541 29.123047 197.404297 29.123047 L 173.919922 29.123047 L 173.919922 68.572266 Z"/>
</svg>
